<svg id="Groupe_86" data-name="Groupe 86" xmlns="http://www.w3.org/2000/svg" width="18.984" height="11.154" viewBox="0 0 18.984 11.154">
  <g id="video-camera">
    <g id="Groupe_83" data-name="Groupe 83">
      <g id="Groupe_82" data-name="Groupe 82" transform="translate(0 0)">
        <path id="Tracé_16" data-name="Tracé 16" d="M10.738,96.512H2.077A2.083,2.083,0,0,0,0,98.589v7a2.083,2.083,0,0,0,2.077,2.077h8.661a2.083,2.083,0,0,0,2.077-2.077v-7A2.07,2.07,0,0,0,10.738,96.512Z" transform="translate(0 -96.512)" fill="#f31954"/>
      </g>
    </g>
    <g id="Groupe_85" data-name="Groupe 85" transform="translate(13.854 1.109)">
      <g id="Groupe_84" data-name="Groupe 84" transform="translate(0 0)">
        <path id="Tracé_17" data-name="Tracé 17" d="M345.1,123.881a1.058,1.058,0,0,0-.353.145L341.5,125.9v4.819l3.261,1.869a1.235,1.235,0,0,0,1.7-.457,1.268,1.268,0,0,0,.166-.623v-6.418A1.25,1.25,0,0,0,345.1,123.881Z" transform="translate(-341.504 -123.847)" fill="#f31954"/>
      </g>
    </g>
  </g>
  <circle id="Ellipse_22" data-name="Ellipse 22" cx="1.755" cy="1.755" r="1.755" transform="translate(2.337 2.34)" fill="#fff"/>
</svg>
