<svg xmlns="http://www.w3.org/2000/svg" width="16.35" height="14.371" viewBox="0 0 16.35 14.371">
  <g id="Groupe_7" data-name="Groupe 7" transform="translate(0 0)">
    <g id="Groupe_6" data-name="Groupe 6" transform="translate(0)">
      <path id="Tracé_8" data-name="Tracé 8" d="M16.15,35.87,9.38,31.08a.479.479,0,0,0-.758.39v2.408A9.112,9.112,0,0,0,0,42.966v1.916a.479.479,0,0,0,.939.132l.074-.259a8.451,8.451,0,0,1,7.609-6.087V41.05a.479.479,0,0,0,.758.39l6.77-4.79a.479.479,0,0,0,0-.779Z" transform="translate(0 -30.99)" fill="#2d3f7b"/>
    </g>
  </g>
</svg>
